# xmcd CD database file
#
# Track frame offsets:
#	150
#	15172
#	31440
#	44242
#	57015
#	73205
#	80245
#	82537
#	91925
#	101897
#	115090
#	137742
#	151620
#
# Disc length: 2064 seconds
#
# Revision: 1
# Processed by: cddbd v1.5.1PL0 Copyright (c) Steve Scherf et al.
# Submitted via: CDex 1.51
#
DISCID=9e080e0d
DTITLE=Monica Zetterlund and Carl Axel Dominiques Orkester - Monica
DYEAR=1967
DGENRE=Jazz
TTITLE0=Sweet Georgie Fame
TTITLE1=Nu Är Det Bra
TTITLE2=Ellinor Rydholm
TTITLE3=Regnets Sång
TTITLE4=Alfie
TTITLE5=Brandvaktens Sång
TTITLE6=Nu Haver Jag Bedragit Dig
TTITLE7=En Haltande Sommarvals
TTITLE8=Dumma Vi Var
TTITLE9=Vers På Vermlandsfötter
TTITLE10=Sov
TTITLE11=En Man Och En Kvinna
TTITLE12=Tillägnan
EXTD=YEAR: 1967
EXTT0=
EXTT1=
EXTT2=
EXTT3=
EXTT4=
EXTT5=
EXTT6=
EXTT7=
EXTT8=
EXTT9=
EXTT10=
EXTT11=
EXTT12=
PLAYORDER=
